<svg width="187" height="66" xmlns="http://www.w3.org/2000/svg" xmlns:xlink="http://www.w3.org/1999/xlink" xml:space="preserve" overflow="hidden"><g transform="translate(-79 -27)"><path d="M60.7275 33.4167C59.0232 32.9339 58.1447 32.0995 58.1447 30.937 58.1447 29.5027 59.4572 28.4893 61.2581 28.4893 63.1209 28.4893 64.3003 29.4792 64.3687 31.072L68.9137 31.072C68.8396 27.0549 65.8012 24.3578 61.3125 24.3578 56.8238 24.3578 53.5651 27.1749 53.5651 31.0608 53.5651 34.1423 55.5226 36.3032 59.3775 37.5022L62.1637 38.2775C64.2262 38.8682 65.0812 39.6744 65.0325 41.0291 65.0015 42.59 63.6356 43.6118 61.5206 43.6118 59.2247 43.6118 58.0772 42.2487 57.9507 40.8509L53.357 40.8509C53.4404 44.8681 56.7713 47.629 61.5234 47.629 65.3671 47.629 69.5577 45.5665 69.6243 41.0581 69.718 37.7769 67.6415 35.4913 63.4369 34.2829Z" fill="#FFFFFF" transform="matrix(1.00588 0 0 1 79 27.0216)"/><path d="M78.6016 31.6917C74.2198 31.8084 70.7623 35.4552 70.879 39.837 70.9913 44.0546 74.3839 47.4473 78.6016 47.5596 79.8757 47.5596 82.0966 46.9427 82.9975 45.5656L83.2844 45.1296 83.2844 47.2493 87.5715 47.2493 87.5715 32.0217 83.2984 32.0217 83.2984 34.0842 83.0116 33.6792C81.655 31.7489 78.9082 31.6917 78.6016 31.6917ZM79.0601 43.4768C77.112 43.4768 75.012 42.005 75.012 39.6332 75.012 37.2613 77.1091 35.7895 79.0601 35.7895 81.011 35.7895 82.9741 37.1376 82.9741 39.6332 82.9741 42.1287 80.9547 43.4768 79.0601 43.4768Z" fill="#FFFFFF" transform="matrix(1.00588 0 0 1 79 27.0216)"/><path d="M94.418 32.0245 90.1336 32.0245 90.1336 47.2643 94.418 47.2643Z" fill="#FFFFFF" transform="matrix(1.00588 0 0 1 79 27.0216)"/><path d="M101.316 24.6559 97.012 24.6559 97.012 47.2587 101.316 47.2587Z" fill="#FFFFFF" transform="matrix(1.00588 0 0 1 79 27.0216)"/><path d="M113.043 24.6334 103.78 24.6334 103.78 47.2587 108.373 47.2587 108.373 39.3388 113.053 39.3388C118.506 39.3388 120.454 35.3873 120.454 31.9964 120.443 26.9143 116.727 24.6334 113.043 24.6334ZM112.808 35.3873 108.363 35.3873 108.363 28.613 112.957 28.613C114.966 28.613 115.875 30.5902 115.875 31.9926 115.875 33.6689 114.728 35.3873 112.823 35.3873Z" fill="#FFFFFF" transform="matrix(1.00588 0 0 1 79 27.0216)"/><path d="M128.061 31.6917C123.484 31.6917 120.16 35.0142 120.16 39.5947 120.16 44.1753 123.467 47.5305 128.061 47.5305 132.654 47.5305 135.98 44.1931 135.98 39.5966 135.98 35.0001 132.654 31.6917 128.061 31.6917ZM128.061 43.3118C126.017 43.3247 124.349 41.6781 124.336 39.6341 124.323 37.59 125.97 35.9225 128.014 35.9096 130.056 35.8967 131.722 37.5398 131.738 39.5816 131.825 41.5555 130.295 43.2255 128.32 43.3118 128.32 43.3118 128.319 43.3118 128.319 43.3118 128.234 43.3118 128.148 43.3118 128.061 43.3118Z" fill="#FFFFFF" transform="matrix(1.00588 0 0 1 79 27.0216)"/><path d="M141.904 32.0245 137.617 32.0245 137.617 47.2643 141.904 47.2643Z" fill="#FFFFFF" transform="matrix(1.00588 0 0 1 79 27.0216)"/><path d="M149.032 34.2051 148.745 34.7507 148.745 32.0217 144.418 32.0217 144.418 47.2558 148.722 47.2558 148.722 39.1869C148.722 37.0176 149.772 35.8701 151.738 35.8701 153.509 35.8701 154.587 37.1151 154.587 39.1119L154.587 47.2493 158.904 47.2493 158.904 38.1182C158.924 33.9717 156.959 31.6767 153.389 31.6767 151.589 31.6739 149.925 32.6364 149.03 34.1985Z" fill="#FFFFFF" transform="matrix(1.00588 0 0 1 79 27.0216)"/><path d="M92.2739 29.858C93.7514 29.8616 94.9514 28.6671 94.9551 27.1899 94.9589 25.7127 93.7645 24.5123 92.287 24.5087 90.8099 24.5051 89.6095 25.6996 89.6058 27.1768 89.6058 27.1771 89.6058 27.1774 89.6058 27.1777L89.6058 27.1871C89.6046 27.5378 89.6745 27.885 89.8111 28.208 90.2248 29.206 91.1983 29.857 92.2786 29.858Z" fill="#FFFFFF" transform="matrix(1.00588 0 0 1 79 27.0216)"/><path d="M139.755 29.858C141.232 29.8616 142.432 28.6671 142.436 27.1899 142.44 25.7127 141.245 24.5123 139.768 24.5087 138.29 24.5051 137.09 25.6996 137.087 27.1768 137.087 27.1771 137.087 27.1774 137.087 27.1777L137.087 27.1871C137.084 27.5374 137.152 27.8848 137.287 28.208 137.701 29.2062 138.675 29.8572 139.755 29.858Z" fill="#FFFFFF" transform="matrix(1.00588 0 0 1 79 27.0216)"/><path d="M170.082 32.0133 167.082 32.0133 167.082 26.0705 162.778 26.0705 162.778 32.0133 159.909 32.0133 159.909 35.6404 162.778 35.6404 162.778 47.2587 167.082 47.2587 167.082 35.6404 170.082 35.6404Z" fill="#FFFFFF" transform="matrix(1.00588 0 0 1 79 27.0216)"/><path d="M38.2972 35.7248 35.2476 17.5235 16.9844 40.2894 39.0622 40.2894 38.2972 35.7248Z" fill="#FFFFFF" transform="matrix(1.00588 0 0 1 79 27.0216)"/><path d="M38.2691 28.7518 40.2022 40.2894 49.2518 40.2894 36.6463 19.0638 38.2691 28.7518Z" fill="#FFFFFF" transform="matrix(1.00588 0 0 1 79 27.0216)"/><path d="M19.1153 41.4144 40.5088 48.918 39.2507 41.4144 19.1153 41.4144Z" fill="#FFFFFF" transform="matrix(1.00588 0 0 1 79 27.0216)"/><path d="M41.5972 48.6021 48.8702 41.4144 40.3916 41.4144 41.5972 48.6021Z" fill="#FFFFFF" transform="matrix(1.00588 0 0 1 79 27.0216)"/><path d="M171.222 44.3431C171.471 44.4877 171.675 44.6978 171.813 44.9506 171.958 45.2168 172.032 45.5163 172.029 45.8196 172.033 46.1216 171.959 46.4195 171.813 46.684 171.674 46.935 171.471 47.1437 171.222 47.2877 170.962 47.4367 170.666 47.5124 170.366 47.5071 170.066 47.5122 169.768 47.4364 169.506 47.2877 169.256 47.1448 169.05 46.9359 168.911 46.684 168.765 46.4194 168.691 46.1215 168.696 45.8196 168.691 45.5163 168.765 45.2169 168.911 44.9506 169.049 44.697 169.256 44.4867 169.506 44.3431 169.768 44.1944 170.066 44.1186 170.366 44.1237 170.666 44.1184 170.962 44.1941 171.222 44.3431ZM171.349 46.8321C171.851 46.2501 171.851 45.3891 171.349 44.8071 170.797 44.2783 169.927 44.2783 169.375 44.8071 168.875 45.3895 168.875 46.2497 169.375 46.8321 169.927 47.3609 170.797 47.3609 171.349 46.8321ZM170.982 45.8009C170.897 45.8974 170.781 45.9617 170.653 45.9827L171.16 46.7084 170.729 46.7168 170.261 45.9996 170.066 45.9996 170.066 46.7168 169.704 46.7168 169.704 44.8981 170.488 44.8981C170.65 44.8894 170.807 44.942 170.931 45.0453 171.042 45.148 171.103 45.2949 171.096 45.4465 171.101 45.573 171.061 45.6973 170.982 45.7962ZM170.071 45.6959 170.468 45.6959C170.537 45.6988 170.606 45.678 170.662 45.6368 170.714 45.5934 170.742 45.5275 170.738 45.4596 170.743 45.3927 170.714 45.3275 170.662 45.2862 170.605 45.2478 170.536 45.2288 170.468 45.2318L170.071 45.2318Z" fill="#FFFFFF" transform="matrix(1.00588 0 0 1 79 27.0216)"/></g></svg>